<svg enable-background="new 0 0 32 32" viewBox="0 0 32 32" xmlns="http://www.w3.org/2000/svg"><path d="m24.426 31h-.852v-2h.852zm-4 0h-.852v-2h.852zm-4.001 0h-.851v-2h.851zm-4 0h-.851v-2h.851zm-4 0h-.85v-2h.851zm18.575-3.574h-22c-.235 0-.425-.19-.425-.426v-22c0-.235.19-.425.425-.425h22c.235 0 .426.19.426.425v22c0 .235-.191.426-.426.426zm-21.575-.852h21.149v-21.148h-21.149zm25.575-2.148h-2v-.852h2zm-28 0h-2v-.852h2zm18-3h-10c-.235 0-.425-.19-.425-.426v-10c0-.235.19-.425.425-.425h10c.235 0 .426.19.426.425v10c0 .235-.191.426-.426.426zm-9.575-.852h9.149v-9.149h-9.149zm19.575-.148h-2v-.852h2zm-28 0h-2v-.852h2zm28-4.001h-2v-.851h2zm-28 0h-2v-.851h2zm28-4h-2v-.851h2zm-28 0h-2v-.851h2zm28-4h-2v-.85h2zm-28 0h-2v-.85h2zm21.426-5.425h-.852v-2h.852zm-4 0h-.852v-2h.852zm-4.001 0h-.851v-2h.851zm-4 0h-.851v-2h.851zm-4 0h-.85v-2h.851z"/><path d="m0 0h32v32h-32z" fill="none"/></svg>